<?xml version="1.0" encoding="UTF-8" standalone="no"?>
<svg width="131px" height="36px" viewBox="0 0 131 36" version="1.1" xmlns="http://www.w3.org/2000/svg" xmlns:xlink="http://www.w3.org/1999/xlink" xmlns:sketch="http://www.bohemiancoding.com/sketch/ns">
    <!-- Generator: Sketch 3.3.2 (12043) - http://www.bohemiancoding.com/sketch -->
    <title>flagpost.nz - logo</title>
    <desc>Created with Sketch.</desc>
    <defs></defs>
    <g id="Page-1" stroke="none" stroke-width="1" fill="none" fill-rule="evenodd" sketch:type="MSPage">
        <g id="flagtest.nz---INTRO-(D)" sketch:type="MSArtboardGroup" transform="translate(-1051.000000, -851.000000)" fill="#FFFFFF">
            <g id="flagpost.nz---logo" sketch:type="MSLayerGroup" transform="translate(1051.500000, 851.500000)">
                <g id="Group" sketch:type="MSShapeGroup">
                    <path d="M17.5980707,0 C7.8585209,0 0,7.74117647 0,17.3352941 C0,24.9941176 5.05787781,31.5411765 12.0803859,33.8058824 L5.47588424,11.3647059 L7.98392283,10.6235294 L15.0482315,34.4647059 C15.8842444,34.5882353 16.7202572,34.6294118 17.5980707,34.6294118 C27.2958199,34.6294118 35.1961415,26.8882353 35.1961415,17.2941176 C35.1543408,7.74117647 27.2958199,0 17.5980707,0 L17.5980707,0 Z M22.2379421,21.5352941 C19.3118971,20.8764706 16.0514469,19.6 13.9614148,22.5647059 L10.3665595,10.5823529 C12.4983923,7.61764706 15.7170418,8.89411765 18.6430868,9.55294118 C22.7813505,10.5 25.4565916,6.25882353 25.4565916,6.25882353 L29.0514469,18.2411765 C29.0514469,18.2411765 26.3762058,22.4411765 22.2379421,21.5352941 L22.2379421,21.5352941 Z" id="Shape"></path>
                    <g transform="translate(46.398714, 9.058824)" id="Shape">
                        <path d="M0.0418006431,15.4 L2.38263666,2.1 L10.9099678,2.1 L10.4919614,4.48823529 L4.80707395,4.48823529 L4.18006431,7.94705882 L9.15434084,7.94705882 L8.73633441,10.2529412 L3.76205788,10.2529412 L2.84244373,15.4 L0.0418006431,15.4 L0.0418006431,15.4 Z"></path>
                        <path d="M13.8778135,12.3529412 C13.7942122,12.8882353 13.8360129,13.3411765 14.5048232,13.3411765 C14.7138264,13.3411765 14.9228296,13.3 15.1736334,13.2176471 L14.755627,15.2352941 C14.2540193,15.4 13.7106109,15.4823529 13.2090032,15.4823529 C11.3697749,15.4823529 10.7009646,14.4941176 10.9935691,12.7647059 L13.2090032,0.288235294 L15.9678457,0.288235294 L13.8778135,12.3529412 L13.8778135,12.3529412 Z"></path>
                        <path d="M26.5016077,12.3529412 C26.4180064,12.8882353 26.4598071,13.3411765 27.1286174,13.3411765 C27.3376206,13.3411765 27.5466238,13.3 27.7974277,13.2176471 L27.3794212,15.2352941 C26.9196141,15.4 26.3762058,15.4823529 25.8745981,15.4823529 C24.4115756,15.4823529 23.7009646,14.9058824 23.6173633,13.5882353 C23.073955,15.0705882 21.903537,15.6058824 20.5659164,15.6058824 C18.3504823,15.6058824 17.0546624,14 17.0546624,11.3235294 C17.0546624,7.74117647 18.977492,4.65294118 22.1125402,4.65294118 C23.6173633,4.65294118 24.5787781,5.22941176 24.7459807,6.62941176 L25.3729904,4.9 L27.7974277,4.9 L26.5016077,12.3529412 L26.5016077,12.3529412 Z M24.2861736,9.26470588 C24.4951768,7.98823529 24.1607717,6.75294118 22.8231511,6.75294118 C20.9839228,6.75294118 19.8971061,8.81176471 19.8971061,11.2 C19.8971061,12.5176471 20.4823151,13.5882353 21.6527331,13.5882353 C22.9485531,13.5882353 23.7009646,12.5588235 23.9517685,11.0764706 L24.2861736,9.26470588 L24.2861736,9.26470588 Z"></path>
                        <path d="M38.6655949,15.4823529 C38.0803859,18.6529412 36.2829582,20.1352941 32.8553055,20.1352941 C30.3054662,20.1352941 28.7170418,19.2294118 28.2154341,17.5 L30.3890675,16.1823529 C30.5980707,17.2941176 31.6430868,18.0764706 32.9389068,18.0764706 C34.8199357,18.0764706 35.6141479,16.9647059 35.9485531,15.2352941 L36.2829582,13.5470588 C35.7395498,14.9882353 34.5691318,15.5235294 33.2733119,15.5235294 C31.0578778,15.5235294 29.7202572,13.9176471 29.7202572,11.2411765 C29.7202572,7.65882353 31.6430868,4.69411765 34.8617363,4.69411765 C36.2829582,4.69411765 37.3279743,5.27058824 37.4951768,6.67058824 L38.1221865,4.94117647 L40.5884244,4.94117647 L38.6655949,15.4823529 L38.6655949,15.4823529 Z M36.9935691,9.26470588 C37.2025723,7.98823529 36.8681672,6.75294118 35.4469453,6.75294118 C33.607717,6.75294118 32.562701,8.72941176 32.562701,11.0764706 C32.562701,12.3941176 33.1061093,13.4647059 34.2765273,13.4647059 C35.5723473,13.4647059 36.4083601,12.6 36.7009646,10.9529412 L36.9935691,9.26470588 L36.9935691,9.26470588 Z"></path>
                        <path d="M43.2636656,19.9705882 L40.4630225,19.9705882 L43.1382637,4.94117647 L45.6045016,4.94117647 L45.562701,6.95882353 C46.1897106,5.47647059 47.2765273,4.69411765 48.9485531,4.69411765 C51.0385852,4.69411765 52.4598071,6.13529412 52.4598071,9.01764706 C52.4598071,12.7235294 50.4533762,15.6470588 47.1093248,15.6470588 C45.6463023,15.6470588 44.5594855,14.9470588 44.3504823,13.7529412 L43.2636656,19.9705882 L43.2636656,19.9705882 Z M44.8102894,11.1176471 C44.6012862,12.3941176 45.1864952,13.6705882 46.5659164,13.6705882 C48.4051447,13.6705882 49.4919614,11.5294118 49.4919614,9.22352941 C49.4919614,7.65882353 48.7813505,6.79411765 47.6109325,6.79411765 C46.4405145,6.79411765 45.437299,7.78235294 45.1028939,9.55294118 L44.8102894,11.1176471 L44.8102894,11.1176471 Z"></path>
                        <path d="M64.3729904,9.26470588 C64.3729904,12.6411765 62.4083601,15.6470588 58.6045016,15.6470588 C55.9710611,15.6470588 54.0064309,14.1235294 54.0064309,11.2411765 C54.0064309,7.78235294 55.9292605,4.73529412 59.8167203,4.73529412 C62.659164,4.69411765 64.3729904,6.38235294 64.3729904,9.26470588 L64.3729904,9.26470588 Z M56.8906752,11.1176471 C56.8906752,12.7235294 57.6012862,13.5470588 58.7717042,13.5470588 C60.4437299,13.5470588 61.4469453,11.6117647 61.4469453,9.22352941 C61.4469453,7.7 60.778135,6.83529412 59.5659164,6.83529412 C57.9356913,6.87647059 56.8906752,8.77058824 56.8906752,11.1176471 L56.8906752,11.1176471 Z"></path>
                        <path d="M67.6334405,11.9411765 C67.6752412,13.2176471 68.4276527,13.8352941 69.4726688,13.8352941 C70.3504823,13.8352941 70.977492,13.5470588 70.977492,12.7235294 C70.977492,11.9823529 70.6012862,11.6117647 69.3472669,11.2 C67.5080386,10.6647059 66.6302251,9.71764706 66.6302251,8.11176471 C66.6302251,5.80588235 68.4694534,4.77647059 70.8102894,4.77647059 C73.318328,4.77647059 74.5723473,5.80588235 74.5723473,7.65882353 L72.2315113,8.15294118 C72.2315113,7.20588235 71.6881029,6.62941176 70.6430868,6.62941176 C69.807074,6.62941176 69.2636656,7.04117647 69.2636656,7.74117647 C69.2636656,8.35882353 69.5562701,8.64705882 71.0610932,9.18235294 C73.0257235,9.84117647 73.7363344,10.7470588 73.7363344,12.4764706 C73.7363344,14.7411765 71.8971061,15.7294118 69.3890675,15.7294118 C67.0482315,15.7294118 65.5016077,14.7823529 65.3344051,12.7647059 L67.6334405,11.9411765 L67.6334405,11.9411765 Z"></path>
                        <path d="M82.0546624,15.0294118 C81.4276527,15.4 80.3826367,15.6470588 79.4212219,15.6470588 C77.2893891,15.6470588 76.1607717,14.5764706 76.6205788,11.9823529 L77.4983923,7.04117647 L75.9935691,7.04117647 L76.3697749,4.94117647 L77.9163987,4.94117647 L78.2926045,2.71764706 L81.0932476,2.38823529 L80.6752412,4.9 L83.4340836,4.9 L83.0578778,7 L80.2990354,7 L79.4212219,12.0235294 C79.2540193,12.9705882 79.6302251,13.3 80.2990354,13.3 C80.8842444,13.3 81.511254,13.0941176 82.096463,12.7647059 L82.096463,15.0294118 L82.0546624,15.0294118 Z"></path>
                    </g>
                </g>
            </g>
        </g>
    </g>
</svg>