<?xml version="1.0" encoding="UTF-8" standalone="no"?>
<svg width="105px" height="200px" viewBox="0 0 105 200" version="1.1" xmlns="http://www.w3.org/2000/svg" xmlns:xlink="http://www.w3.org/1999/xlink" xmlns:sketch="http://www.bohemiancoding.com/sketch/ns">
    <!-- Generator: Sketch 3.3.2 (12043) - http://www.bohemiancoding.com/sketch -->
    <title>flagdesign.nz - logo</title>
    <desc>Created with Sketch.</desc>
    <defs></defs>
    <g id="Page-1" stroke="none" stroke-width="1" fill="none" fill-rule="evenodd" sketch:type="MSPage">
        <g id="flagtest.nz---INTRO-(D)" sketch:type="MSArtboardGroup" transform="translate(-891.000000, -820.000000)" fill="#FFFFFF">
            <g id="flagdesign.nz---logo" sketch:type="MSLayerGroup" transform="translate(891.500000, 819.500000)">
                <path d="M103.933057,34.146303 L77.3909429,34.146303 L77.3909429,0.928121212 L0.1828,0.928121212 L0.1828,200.314106 L1.71137143,200.314106 L1.71137143,102.120545 L52.4049143,102.120545 L52.4049143,68.9023636 L103.933057,68.9023636 L103.933057,34.146303 L103.933057,34.146303 Z M1.71137143,2.466 L75.8623714,2.466 L75.8623714,34.146303 L1.71137143,34.146303 L1.71137143,2.466 Z M1.71137143,68.9023636 L50.8763429,68.9023636 L50.8763429,100.582667 L1.71137143,100.582667 L1.71137143,68.9023636 Z M1.71137143,35.6841818 L102.404486,35.6841818 L102.404486,67.3644848 L1.71137143,67.3644848 L1.71137143,35.6841818 Z" id="Fill-1" sketch:type="MSShapeGroup"></path>
                <path d="M7.64528571,28.0747576 L7.64528571,9.19883333 L18.5226,9.19883333 L18.5226,10.6444394 L9.20442857,10.6444394 L9.20442857,17.8386364 L18.0334571,17.8386364 L18.0334571,19.2504091 L9.20442857,19.2504091 L9.20442857,28.0747576 L7.64528571,28.0747576" id="Fill-2" sketch:type="MSShapeGroup"></path>
                <path d="M22.1055714,9.19883333 L23.6647143,9.19883333 L23.6647143,26.6291515 L33.8388857,26.6291515 L33.8388857,28.0747576 L22.1055714,28.0747576 L22.1055714,9.19883333" id="Fill-3" sketch:type="MSShapeGroup"></path>
                <path d="M44.6336571,9.19883333 L52.0564,28.0747576 L50.5003143,28.0747576 L48.0546,21.864803 L39.7452857,21.864803 L37.3301429,28.0747576 L35.771,28.0747576 L43.1968,9.19883333 L44.6336571,9.19883333 L44.6336571,9.19883333 Z M40.2925143,20.4499545 L47.5043143,20.4499545 L43.8999429,11.2288333 L40.2925143,20.4499545 L40.2925143,20.4499545 Z" id="Fill-4" sketch:type="MSShapeGroup"></path>
                <path d="M63.0682286,20.6037424 L63.0682286,19.2196515 L69.4515429,19.2196515 L69.4515429,20.3269242 C69.4515429,25.1527879 66.4891714,28.3515758 61.9340286,28.3515758 C57.2290857,28.3515758 53.533,24.6329848 53.533,18.6352576 C53.533,12.6436818 57.2596571,8.92201515 61.9065143,8.92201515 C65.6026,8.92201515 68.1675429,11.0750455 68.9624,14.3322727 L67.4063143,14.3322727 C66.5778286,11.9024242 64.7466,10.3983788 61.9065143,10.3983788 C57.9933714,10.3983788 55.1227143,13.5325758 55.1227143,18.6352576 C55.1227143,23.7410152 57.9628,26.9059697 61.9340286,26.9059697 C65.6637429,26.9059697 67.8006857,24.5714697 67.9566,20.6037424 L63.0682286,20.6037424" id="Fill-5" sketch:type="MSShapeGroup"></path>
                <path d="M7.64528571,41.8910606 L13.3590857,41.8910606 C18.7977429,41.8910606 22.4632571,45.5819697 22.4632571,51.3305606 C22.4632571,57.0791515 18.7977429,60.7669848 13.3590857,60.7669848 L7.64528571,60.7669848 L7.64528571,41.8910606 L7.64528571,41.8910606 Z M13.3590857,59.3213788 C17.9723143,59.3213788 20.8766,56.1564242 20.8766,51.3305606 C20.8766,46.504697 17.9723143,43.3366667 13.3590857,43.3366667 L9.20442857,43.3366667 L9.20442857,59.3213788 L13.3590857,59.3213788 L13.3590857,59.3213788 Z" id="Fill-6" sketch:type="MSShapeGroup"></path>
                <path d="M37.6908857,41.8910606 L37.6908857,43.3366667 L27.5778571,43.3366667 L27.5778571,50.3155606 L36.7431714,50.3155606 L36.7431714,51.7611667 L27.5778571,51.7611667 L27.5778571,59.3213788 L37.6908857,59.3213788 L37.6908857,60.7669848 L26.0492857,60.7669848 L26.0492857,41.8910606 L37.6908857,41.8910606" id="Fill-7" sketch:type="MSShapeGroup"></path>
                <path d="M41.7935714,56.1564242 C42.5578571,58.4294091 44.5419429,59.6289545 47.1099429,59.6289545 C49.8002286,59.6289545 51.7843143,58.2479394 51.7843143,55.8488485 C51.7843143,54.1910152 50.9283143,53.0222273 48.5468,52.3455606 L44.973,51.3305606 C42.3438571,50.5923788 40.6624286,49.3928333 40.6624286,46.72 C40.6624286,43.5212121 43.3527143,41.6173182 46.5902286,41.6173182 C50.2588,41.6173182 52.4568857,43.5550455 53.1906,46.3509091 L51.6314571,46.3509091 C50.9283143,44.3516667 49.3110857,43.0321667 46.5902286,43.0321667 C44.1475714,43.0321667 42.1604286,44.3209091 42.1604286,46.6277273 C42.1604286,48.6238939 43.4444286,49.3313182 45.7372857,49.9772273 L48.8830857,50.8999545 C51.9677429,51.7611667 53.3128857,53.2959697 53.3128857,55.7873333 C53.3128857,59.1091515 50.6226,61.043803 47.1099429,61.043803 C43.6584286,61.043803 40.907,59.293697 40.1732857,56.1564242 L41.7935714,56.1564242" id="Fill-8" sketch:type="MSShapeGroup"></path>
                <path d="M56.9875714,41.8910606 L58.5467143,41.8910606 L58.5467143,60.7669848 L56.9875714,60.7669848 L56.9875714,41.8910606 Z" id="Fill-9" sketch:type="MSShapeGroup"></path>
                <path d="M71.6863143,53.2959697 L71.6863143,51.9149545 L78.0726857,51.9149545 L78.0726857,53.0222273 C78.0726857,57.8450152 75.1103143,61.043803 70.5551714,61.043803 C65.8502286,61.043803 62.1541429,57.3252121 62.1541429,51.3305606 C62.1541429,45.3359091 65.8808,41.6173182 70.5246,41.6173182 C74.2206857,41.6173182 76.7886857,43.7672727 77.5835429,47.0245 L76.0244,47.0245 C75.1989714,44.5977273 73.3677429,43.0906061 70.5246,43.0906061 C66.6145143,43.0906061 63.7438571,46.2278788 63.7438571,51.3305606 C63.7438571,56.4332424 66.5839429,59.598197 70.5551714,59.598197 C74.2848857,59.598197 76.4218286,57.263697 76.5746857,53.2959697 L71.6863143,53.2959697" id="Fill-10" sketch:type="MSShapeGroup"></path>
                <path d="M95.6512571,60.7669848 L94.6118286,60.7669848 L83.1536571,44.3824242 L83.1536571,60.7669848 L81.6587143,60.7669848 L81.6587143,41.8910606 L83.1536571,41.8910606 L94.1563143,57.6327879 L94.1563143,41.8910606 L95.6512571,41.8910606 L95.6512571,60.7669848" id="Fill-11" sketch:type="MSShapeGroup"></path>
                <path d="M8.77031429,91.4538182 C9.41231429,91.4538182 9.93202857,91.976697 9.93202857,92.6533636 C9.93202857,93.2992727 9.41231429,93.8221515 8.77031429,93.8221515 C8.15888571,93.8221515 7.63917143,93.2992727 7.63917143,92.6533636 C7.63917143,91.976697 8.15888571,91.4538182 8.77031429,91.4538182" id="Fill-12" sketch:type="MSShapeGroup"></path>
                <path d="M27.3516286,93.7298788 L26.3122,93.7298788 L14.8540286,77.3453182 L14.8540286,93.7298788 L13.3560286,93.7298788 L13.3560286,74.8539545 L14.8540286,74.8539545 L25.8536286,90.5926061 L25.8536286,74.8539545 L27.3516286,74.8539545 L27.3516286,93.7298788" id="Fill-13" sketch:type="MSShapeGroup"></path>
                <path d="M44.4104857,93.7298788 L30.9070857,93.7298788 L30.9070857,92.5303333 L42.3652571,76.2995606 L31.0599429,76.2995606 L31.0599429,74.8539545 L44.2912571,74.8539545 L44.2912571,76.0535 L32.8606,92.2842727 L44.4104857,92.2842727 L44.4104857,93.7298788" id="Fill-14" sketch:type="MSShapeGroup"></path>
            </g>
        </g>
    </g>
</svg>